HIERARCHY
ROOT Hips
{
	OFFSET 0.000000 0.000000 0.000000 
	CHANNELS 6 Xposition Yposition Zposition Zrotation Yrotation Xrotation
	JOINT LeftUpLeg
	{
		OFFSET 1.363060 -1.794630 0.839290 
		CHANNELS 3 Zrotation Yrotation Xrotation
		JOINT LeftLeg
		{
			OFFSET 2.448110 -6.726130 0.000000 
			CHANNELS 3 Zrotation Yrotation Xrotation
			JOINT LeftFoot
			{
				OFFSET 2.562200 -7.039590 0.000000 
				CHANNELS 3 Zrotation Yrotation Xrotation
				JOINT LeftToeBase
				{
					OFFSET 0.157640 -0.433110 2.322550 
					CHANNELS 3 Zrotation Yrotation Xrotation
					End Site
					{
						OFFSET 0.000000 0.000000 0.000000 
					}
				}
			}
		}
	}
	JOINT RightUpLeg
	{
		OFFSET -1.305520 -1.794630 0.839290 
		CHANNELS 3 Zrotation Yrotation Xrotation
		JOINT RightLeg
		{
			OFFSET -2.542530 -6.985550 0.000000 
			CHANNELS 3 Zrotation Yrotation Xrotation
			JOINT RightFoot
			{
				OFFSET -2.568260 -7.056230 0.000000 
				CHANNELS 3 Zrotation Yrotation Xrotation
				JOINT RightToeBase
				{
					OFFSET -0.164730 -0.452590 2.363150 
					CHANNELS 3 Zrotation Yrotation Xrotation
					End Site
					{
						OFFSET 0.000000 0.000000 0.000000 
					}
				}
			}
		}
	}
	JOINT Spine
	{
		OFFSET 0.028270 2.035590 -0.193380 
		CHANNELS 3 Zrotation Yrotation Xrotation
		JOINT Spine1
		{
			OFFSET 0.056720 2.048850 -0.042750 
			CHANNELS 3 Zrotation Yrotation Xrotation
			JOINT Neck1
			{
				OFFSET -0.054170 1.746240 0.172020 
				CHANNELS 3 Zrotation Yrotation Xrotation
				JOINT Head
				{
					OFFSET 0.104070 1.761360 -0.123970 
					CHANNELS 3 Zrotation Yrotation Xrotation
					End Site
					{
						OFFSET 0.000000 0.000000 0.000000 
					}
				}
			}
			JOINT LeftArm
			{
				OFFSET 3.362410 1.200890 -0.311210 
				CHANNELS 3 Zrotation Yrotation Xrotation
				JOINT LeftForeArm
				{
					OFFSET 4.983000 -0.000000 -0.000000 
					CHANNELS 3 Zrotation Yrotation Xrotation
					JOINT LeftHand
					{
						OFFSET 3.483560 -0.000000 -0.000000 
						CHANNELS 3 Zrotation Yrotation Xrotation
						JOINT LeftHandIndex1
						{
							OFFSET 0.715260 -0.000000 -0.000000 
							CHANNELS 3 Zrotation Yrotation Xrotation
							End Site
							{
								OFFSET 0.000000 0.000000 0.000000 
							}
						}
					}
				}
			}
			JOINT RightArm
			{
				OFFSET -3.136600 1.374050 -0.404650 
				CHANNELS 3 Zrotation Yrotation Xrotation
				JOINT RightForeArm
				{
					OFFSET -5.241900 -0.000000 -0.000000 
					CHANNELS 3 Zrotation Yrotation Xrotation
					JOINT RightHand
					{
						OFFSET -3.444170 -0.000000 -0.000000 
						CHANNELS 3 Zrotation Yrotation Xrotation
						JOINT RightHandIndex1
						{
							OFFSET -0.622530 -0.000000 -0.000000 
							CHANNELS 3 Zrotation Yrotation Xrotation
							End Site
							{
								OFFSET 0.000000 0.000000 0.000000 
							}
						}
					}
				}
			}
		}
	}
}
MOTION
Frames: 9
Frame Time: 0.041667
-0.777895 18.253848 4.735957 -2.703432 -3.385533 -1.314617 -10.028855 -6.355613 -12.985319 2.101412 9.135815 29.126718 -0.452520 4.962848 -11.132776 8.744100 -16.640200 -55.200800 2.435024 2.105015 -1.423732 0.085676 0.982316 1.522087 0.378774 -0.715594 6.140422 0.000000 0.000000 0.000000 -11.131222 3.291338 32.011802 3.801758 1.331479 -24.622015 0.543145 -3.934707 -17.365501 0.181000 -2.216300 -1.749400 -85.914635 13.654935 27.854238 43.747098 -48.449330 -18.268593 0.392291 0.731735 -5.753459 -7.125000 0.000000 0.000000 17.801579 38.894740 -1.863150 -154.371529 34.486223 -110.828288 -0.419220 1.948186 -27.202611 7.125000 0.000000 0.000000 
-0.777797 18.252082 4.752049 -2.683789 -3.323027 -1.178966 -10.023785 -6.381044 -13.165482 2.124456 9.193622 29.266340 -0.440356 4.923016 -11.139885 8.760300 -16.651000 -55.257300 2.433090 2.103904 -1.423221 0.086310 0.981281 1.522100 0.378669 -0.716204 6.139369 0.000000 0.000000 0.000000 -11.377052 3.307470 31.647549 3.905239 1.345943 -24.645894 0.674933 -3.938537 -17.600705 0.232500 -2.222700 -1.803100 -85.913305 13.793877 27.815083 43.410382 -48.260885 -18.053499 0.404477 0.721239 -6.087322 -7.125000 0.000000 0.000000 17.561286 38.815776 -2.217085 -154.476419 34.444438 -110.875823 -0.406819 1.968312 -27.184282 7.125000 0.000000 0.000000 
-0.777306 18.250807 4.769907 -2.716983 -3.242206 -1.078325 -10.003443 -6.401485 -13.289779 2.148520 9.231093 29.384817 -0.417990 4.832283 -11.143903 8.756500 -16.648400 -55.244000 2.437393 2.100836 -1.425910 0.086297 0.977666 1.520370 0.377573 -0.720093 6.138447 0.000000 0.000000 0.000000 -11.240906 3.224476 31.567215 3.942459 1.335934 -24.647488 0.779894 -3.912121 -17.592576 0.276100 -2.204400 -1.756100 -86.022044 13.811374 27.616068 43.371213 -48.243433 -18.030291 0.404604 0.717498 -6.024638 -7.125000 0.000000 0.000000 17.161171 38.896267 -2.702553 -154.583425 34.394471 -110.929697 -0.398140 1.968447 -27.179492 7.125000 0.000000 0.000000 
-0.777503 18.249629 4.786489 -2.681199 -3.203699 -0.982593 -10.014185 -6.383136 -13.375313 2.161462 9.259978 29.451163 -0.390184 4.715285 -11.118464 8.740100 -16.637500 -55.186800 2.436532 2.099804 -1.426719 0.086806 0.976310 1.520199 0.377305 -0.721084 6.137351 0.000000 0.000000 0.000000 -11.455770 3.235446 31.296910 4.051072 1.350045 -24.665061 0.720806 -3.944855 -17.723244 0.267400 -2.215000 -1.773900 -86.067425 13.962799 27.541266 43.893835 -48.524449 -18.358715 0.377525 0.733252 -5.599879 -7.125000 0.000000 0.000000 16.778217 38.946035 -3.188166 -154.601129 34.424951 -110.929016 -0.380008 1.968582 -27.209491 7.125000 0.000000 0.000000 
-0.778091 18.248059 4.799539 -2.596125 -3.224727 -0.837357 -10.024707 -6.335405 -13.515628 2.168445 9.304363 29.513257 -0.366416 4.623273 -11.091176 8.732000 -16.632100 -55.158400 2.429214 2.100802 -1.425495 0.088085 0.977110 1.521931 0.377934 -0.718971 6.135620 0.000000 0.000000 0.000000 -12.112941 3.362131 30.649964 4.237137 1.396584 -24.710096 0.636146 -4.046189 -18.224723 0.253300 -2.270900 -1.938600 -85.976395 14.252362 27.563141 44.079356 -48.608966 -18.470310 0.367944 0.735503 -5.426967 -7.125000 0.000000 0.000000 16.499324 38.907540 -3.559500 -154.543286 34.535532 -110.877149 -0.351831 1.977147 -27.111251 7.125000 0.000000 0.000000 
-0.779269 18.246391 4.811411 -2.565897 -3.243712 -0.679786 -9.994063 -6.354324 -13.653172 2.175429 9.349111 29.583388 -0.354193 4.592916 -11.123366 8.728400 -16.629700 -55.145900 2.424039 2.101358 -1.425406 0.089078 0.977189 1.523214 0.378287 -0.717786 6.133988 0.000000 0.000000 0.000000 -12.618317 3.447248 30.097775 4.366413 1.426936 -24.738910 0.728853 -4.084114 -18.623089 0.286400 -2.299500 -2.056800 -85.880902 14.418988 27.565208 44.076694 -48.597341 -18.463280 0.365954 0.733627 -5.412954 -7.125000 0.000000 0.000000 16.202924 38.915733 -3.932681 -154.508408 34.624491 -110.843027 -0.316377 1.990019 -26.819643 7.125000 0.000000 0.000000 
-0.782212 18.244036 4.822891 -2.561459 -3.245128 -0.548663 -9.950495 -6.422410 -13.754568 2.183020 9.388655 29.656416 -0.347964 4.600164 -11.215185 8.728400 -16.629700 -55.146000 2.421043 2.101501 -1.426090 0.089760 0.976784 1.523919 0.378372 -0.717430 6.132683 0.000000 0.000000 0.000000 -12.974302 3.485030 29.713907 4.476213 1.443179 -24.757885 0.891113 -4.054489 -18.869534 0.332500 -2.292300 -2.113300 -85.827704 14.493492 27.472237 43.896199 -48.495436 -18.347433 0.373812 0.726083 -5.538751 -7.125000 0.000000 0.000000 15.829227 38.972439 -4.396025 -154.498969 34.681847 -110.831169 -0.274438 1.998448 -26.550989 7.125000 0.000000 0.000000 
-0.783979 18.242074 4.834371 -2.543441 -3.250883 -0.428134 -9.927825 -6.435829 -13.856339 2.189542 9.424995 29.720614 -0.340740 4.597376 -11.285642 8.737700 -16.635900 -55.178600 2.418024 2.101758 -1.427189 0.090456 0.976332 1.524671 0.378440 -0.717069 6.131281 0.000000 0.000000 0.000000 -13.352426 3.519592 29.322514 4.602824 1.458667 -24.783835 0.922170 -4.045200 -19.135427 0.341900 -2.289100 -2.177600 -85.785825 14.589918 27.334449 43.393302 -48.217596 -18.035489 0.399794 0.706556 -5.964213 -7.125000 0.000000 0.000000 15.406815 39.025137 -4.937757 -154.495357 34.733892 -110.824727 -0.231664 1.985082 -26.415077 7.125000 0.000000 0.000000 
-0.783586 18.241289 4.847323 -2.498373 -3.211108 -0.295910 -9.961513 -6.451907 -13.969403 2.197620 9.451838 29.776769 -0.327901 4.554126 -11.304011 8.739400 -16.637000 -55.184300 2.417664 2.100913 -1.429026 0.090884 0.974794 1.524536 0.378088 -0.718190 6.130064 0.000000 0.000000 0.000000 -13.553781 3.504753 29.063062 4.712168 1.464071 -24.802957 0.909122 -4.072003 -19.316098 0.349700 -2.296300 -2.200200 -85.842202 14.647259 27.267188 43.818122 -48.449043 -18.299042 0.372352 0.723259 -5.484278 -7.125000 0.000000 0.000000 14.899344 39.053262 -5.600154 -154.570266 34.722700 -110.855328 -0.213680 1.977665 -26.499457 7.125000 0.000000 0.000000 
